<svg width="80" height="80" viewBox="0 0 80 80" fill="none" xmlns="http://www.w3.org/2000/svg">
<g clip-path="url(#clip0_26_377)">
<g filter="url(#filter0_b_26_377)">
<path fill-rule="evenodd" clip-rule="evenodd" d="M28.1188 9.18869C31.53 -2.76439 48.4699 -2.76439 51.8811 9.18869C52.9705 13.0059 56.8922 15.2701 60.7427 14.3049C72.8 11.2826 81.2699 25.953 72.6239 34.8837C69.8628 37.7358 69.8628 42.2642 72.6239 45.1162C81.2699 54.047 72.8 68.7173 60.7427 65.695C56.8922 64.7298 52.9705 66.994 51.8811 70.8112C48.4699 82.7643 31.53 82.7643 28.1188 70.8112C27.0294 66.994 23.1077 64.7298 19.2572 65.695C7.19989 68.7173 -1.27004 54.047 7.376 45.1162C10.1371 42.2642 10.1371 37.7358 7.37601 34.8837C-1.27004 25.953 7.19989 11.2826 19.2572 14.3049C23.1077 15.2701 27.0294 13.0059 28.1188 9.18869Z" fill="#C72752" fill-opacity="0.35"/>
<path fill-rule="evenodd" clip-rule="evenodd" d="M28.1188 9.18869C31.53 -2.76439 48.4699 -2.76439 51.8811 9.18869C52.9705 13.0059 56.8922 15.2701 60.7427 14.3049C72.8 11.2826 81.2699 25.953 72.6239 34.8837C69.8628 37.7358 69.8628 42.2642 72.6239 45.1162C81.2699 54.047 72.8 68.7173 60.7427 65.695C56.8922 64.7298 52.9705 66.994 51.8811 70.8112C48.4699 82.7643 31.53 82.7643 28.1188 70.8112C27.0294 66.994 23.1077 64.7298 19.2572 65.695C7.19989 68.7173 -1.27004 54.047 7.376 45.1162C10.1371 42.2642 10.1371 37.7358 7.37601 34.8837C-1.27004 25.953 7.19989 11.2826 19.2572 14.3049C23.1077 15.2701 27.0294 13.0059 28.1188 9.18869Z" stroke="url(#paint0_linear_26_377)" stroke-linecap="round"/>
</g>
<g filter="url(#filter1_d_26_377)">
<path fill-rule="evenodd" clip-rule="evenodd" d="M55.2539 31.6005C56.1378 30.5398 55.9945 28.9634 54.9338 28.0795C53.8731 27.1956 52.2967 27.3389 51.4128 28.3996L39.8676 42.2538C38.6316 43.737 37.8726 44.6384 37.2474 45.203C36.9574 45.4649 36.7854 45.5692 36.7029 45.6091C36.6862 45.6173 36.6742 45.6221 36.6667 45.6249C36.6591 45.6221 36.6472 45.6173 36.6305 45.6091C36.548 45.5692 36.376 45.4649 36.086 45.203C35.4608 44.6384 34.7017 43.737 33.4658 42.2538L28.5872 36.3996C27.7033 35.3389 26.1269 35.1956 25.0662 36.0795C24.0055 36.9634 23.8622 38.5398 24.7461 39.6005L29.7311 45.5825C30.826 46.8967 31.8131 48.0814 32.7351 48.914C33.7382 49.8198 35.0017 50.6266 36.6667 50.6266C38.3317 50.6266 39.5952 49.8198 40.5983 48.914C41.5203 48.0814 42.5074 46.8967 43.6022 45.5826L55.2539 31.6005Z" fill="url(#paint1_linear_26_377)"/>
</g>
</g>
<defs>
<filter id="filter0_b_26_377" x="-20.6611" y="-24.2761" width="121.322" height="128.552" filterUnits="userSpaceOnUse" color-interpolation-filters="sRGB">
<feFlood flood-opacity="0" result="BackgroundImageFix"/>
<feGaussianBlur in="BackgroundImage" stdDeviation="12"/>
<feComposite in2="SourceAlpha" operator="in" result="effect1_backgroundBlur_26_377"/>
<feBlend mode="normal" in="SourceGraphic" in2="effect1_backgroundBlur_26_377" result="shape"/>
</filter>
<filter id="filter1_d_26_377" x="20.9108" y="24.2442" width="44.6901" height="36.1498" filterUnits="userSpaceOnUse" color-interpolation-filters="sRGB">
<feFlood flood-opacity="0" result="BackgroundImageFix"/>
<feColorMatrix in="SourceAlpha" type="matrix" values="0 0 0 0 0 0 0 0 0 0 0 0 0 0 0 0 0 0 127 0" result="hardAlpha"/>
<feOffset dx="3.25583" dy="3.25583"/>
<feGaussianBlur stdDeviation="3.25583"/>
<feColorMatrix type="matrix" values="0 0 0 0 0.8 0 0 0 0 0.156863 0 0 0 0 0.32549 0 0 0 0.5 0"/>
<feBlend mode="normal" in2="BackgroundImageFix" result="effect1_dropShadow_26_377"/>
<feBlend mode="normal" in="SourceGraphic" in2="effect1_dropShadow_26_377" result="shape"/>
</filter>
<linearGradient id="paint0_linear_26_377" x1="3.84119" y1="0.223877" x2="83.0656" y2="72.1705" gradientUnits="userSpaceOnUse">
<stop stop-color="white" stop-opacity="0.25"/>
<stop offset="1" stop-color="white" stop-opacity="0"/>
</linearGradient>
<linearGradient id="paint1_linear_26_377" x1="40.2667" y1="55.5535" x2="70.8567" y2="14.4945" gradientUnits="userSpaceOnUse">
<stop stop-color="white"/>
<stop offset="1" stop-color="white" stop-opacity="0.2"/>
</linearGradient>
<clipPath id="clip0_26_377">
<rect width="80" height="80" fill="white"/>
</clipPath>
</defs>
</svg>
