<svg width="32" height="32" viewBox="0 0 32 32" fill="none" xmlns="http://www.w3.org/2000/svg">
<path d="M14.7333 19.9334L12.2666 22.4001C11.7466 22.9201 10.92 22.9201 10.3866 22.4134C10.24 22.2667 10.0933 22.1334 9.94663 21.9867C8.57329 20.6001 7.33329 19.1467 6.22663 17.6267C5.13329 16.1067 4.25329 14.5867 3.61329 13.0801C2.98663 11.5601 2.66663 10.1067 2.66663 8.72008C2.66663 7.81341 2.82663 6.94675 3.14663 6.14675C3.46663 5.33342 3.97329 4.58675 4.67996 3.92008C5.53329 3.08008 6.46663 2.66675 7.45329 2.66675C7.82663 2.66675 8.19996 2.74675 8.53329 2.90675C8.87996 3.06675 9.18663 3.30675 9.42663 3.65341L12.52 8.01342C12.76 8.34675 12.9333 8.65341 13.0533 8.94675C13.1733 9.22675 13.24 9.50675 13.24 9.76008C13.24 10.0801 13.1466 10.4001 12.96 10.7067C12.7866 11.0134 12.5333 11.3334 12.2133 11.6534L11.2 12.7067C11.0533 12.8534 10.9866 13.0267 10.9866 13.2401C10.9866 13.3467 11 13.4401 11.0266 13.5467C11.0666 13.6534 11.1066 13.7334 11.1333 13.8134C11.3733 14.2534 11.7866 14.8267 12.3733 15.5201C12.9733 16.2134 13.6133 16.9201 14.3066 17.6267C14.44 17.7601 14.5866 17.8934 14.72 18.0267C15.2533 18.5467 15.2666 19.4001 14.7333 19.9334Z" fill="#3D3D3D"/>
<path d="M29.2934 24.44C29.2934 24.8133 29.2267 25.2 29.0934 25.5733C29.0534 25.68 29.0134 25.7866 28.96 25.8933C28.7334 26.3733 28.4401 26.8266 28.0534 27.2533C27.4001 27.9733 26.68 28.4933 25.8667 28.8266C25.8534 28.8266 25.84 28.84 25.8267 28.84C25.04 29.16 24.1867 29.3333 23.2667 29.3333C21.9067 29.3333 20.4534 29.0133 18.92 28.36C17.3867 27.7066 15.8534 26.8266 14.3334 25.72C13.8134 25.3333 13.2934 24.9466 12.8 24.5333L17.16 20.1733C17.5334 20.4533 17.8667 20.6666 18.1467 20.8133C18.2134 20.84 18.2934 20.88 18.3867 20.92C18.4934 20.96 18.6 20.9733 18.72 20.9733C18.9467 20.9733 19.12 20.8933 19.2667 20.7466L20.28 19.7466C20.6134 19.4133 20.9334 19.16 21.24 19C21.5467 18.8133 21.8534 18.72 22.1867 18.72C22.44 18.72 22.7067 18.7733 23 18.8933C23.2934 19.0133 23.6 19.1866 23.9334 19.4133L28.3467 22.5466C28.6934 22.7866 28.9334 23.0666 29.08 23.4C29.2134 23.7333 29.2934 24.0666 29.2934 24.44Z" fill="#3D3D3D"/>
</svg>
