<svg width="41" height="40" viewBox="0 0 41 40" fill="none" xmlns="http://www.w3.org/2000/svg">
<rect width="41" height="40" fill="#F5F5F5"/>
<rect x="-792" y="-2464" width="1728" height="2720" rx="24" fill="white"/>
<rect x="-792" y="-320" width="1728" height="464" fill="#FAFAFA"/>
<path d="M13.3424 20C13.3424 16.3182 16.328 13.3328 20.012 13.3328C23.696 13.3328 26.6832 16.3182 26.6832 20C26.6832 23.6818 23.696 26.6672 20.012 26.6672C16.328 26.6672 13.3424 23.6818 13.3424 20ZM9.73608 20C9.73608 25.672 14.3366 30.2698 20.012 30.2698C25.6874 30.2698 30.2879 25.672 30.2879 20C30.2879 14.328 25.6874 9.73024 20.012 9.73024C14.3366 9.73024 9.73608 14.328 9.73608 20ZM28.2933 9.32304C28.2931 9.79772 28.4338 10.2618 28.6975 10.6566C28.9612 11.0514 29.3361 11.3591 29.7748 11.5409C30.2136 11.7228 30.6964 11.7705 31.1623 11.6781C31.6282 11.5857 32.0561 11.3572 32.3921 11.0217C32.7281 10.6862 32.957 10.2587 33.0498 9.79316C33.1427 9.32764 33.0953 8.84506 32.9137 8.40645C32.7321 7.96783 32.4245 7.59288 32.0297 7.32901C31.6349 7.06513 31.1706 6.92419 30.6957 6.924H30.6947C30.0581 6.9243 29.4476 7.17712 28.9973 7.62693C28.5471 8.07675 28.2938 8.68678 28.2933 9.32304ZM11.9272 36.2795C9.97606 36.1907 8.91559 35.8659 8.21084 35.5915C7.27652 35.228 6.60988 34.795 5.90898 34.0955C5.20808 33.396 4.77422 32.7304 4.41209 31.7966C4.13736 31.0926 3.81237 30.0325 3.72367 28.0826C3.62665 25.9744 3.60728 25.3411 3.60728 20.0002C3.60728 14.6592 3.62826 14.0277 3.72367 11.9178C3.81253 9.96784 4.13992 8.90976 4.41209 8.20368C4.77582 7.26992 5.20904 6.60368 5.90898 5.9032C6.60892 5.20272 7.27492 4.76912 8.21084 4.4072C8.91527 4.13264 9.97606 3.80784 11.9272 3.7192C14.0366 3.62224 14.6702 3.60288 20.012 3.60288C25.3538 3.60288 25.9881 3.62384 28.0992 3.7192C30.0503 3.808 31.1091 4.1352 31.8156 4.4072C32.7499 4.76912 33.4165 5.20368 34.1174 5.9032C34.8183 6.60272 35.2506 7.26992 35.6143 8.20368C35.889 8.90768 36.214 9.96784 36.3027 11.9178C36.3997 14.0277 36.4191 14.6592 36.4191 20.0002C36.4191 25.3411 36.3997 25.9726 36.3027 28.0826C36.2139 30.0325 35.8873 31.0923 35.6143 31.7966C35.2506 32.7304 34.8174 33.3966 34.1174 34.0955C33.4175 34.7944 32.7499 35.228 31.8156 35.5915C31.1111 35.8661 30.0503 36.1909 28.0992 36.2795C25.9898 36.3765 25.3562 36.3958 20.012 36.3958C14.6678 36.3958 14.0359 36.3765 11.9272 36.2795ZM11.7615 0.12112C9.63105 0.21808 8.1753 0.55568 6.90398 1.05008C5.58735 1.56064 4.47276 2.2456 3.35897 3.35696C2.24519 4.46832 1.56158 5.584 1.05071 6.89984C0.556013 8.1712 0.218211 9.62528 0.121193 11.7544C0.0225735 13.8869 0 14.5686 0 20C0 25.4314 0.0225735 26.1131 0.121193 28.2456C0.218211 30.3749 0.556013 31.8288 1.05071 33.1002C1.56158 34.4152 2.24535 35.5322 3.35897 36.643C4.4726 37.7539 5.58735 38.4379 6.90398 38.9499C8.1777 39.4443 9.63105 39.7819 11.7615 39.8789C13.8963 39.9758 14.5774 40 20.012 40C25.4466 40 26.1288 39.9774 28.2625 39.8789C30.3931 39.7819 31.8479 39.4443 33.12 38.9499C34.4358 38.4379 35.5512 37.7544 36.665 36.643C37.7788 35.5317 38.461 34.4152 38.9733 33.1002C39.468 31.8288 39.8074 30.3747 39.9028 28.2456C39.9998 26.1115 40.0224 25.4314 40.0224 20C40.0224 14.5686 39.9998 13.8869 39.9028 11.7544C39.8058 9.62512 39.468 8.1704 38.9733 6.89984C38.461 5.5848 37.7771 4.47008 36.665 3.35696C35.553 2.24384 34.4358 1.56064 33.1216 1.05008C31.8479 0.55568 30.3929 0.21648 28.2641 0.12112C26.1304 0.02416 25.4482 0 20.0136 0C14.579 0 13.8963 0.02256 11.7615 0.12112Z" fill="url(#paint0_radial_0_1)"/>
<path d="M13.3424 20C13.3424 16.3182 16.328 13.3328 20.012 13.3328C23.696 13.3328 26.6832 16.3182 26.6832 20C26.6832 23.6818 23.696 26.6672 20.012 26.6672C16.328 26.6672 13.3424 23.6818 13.3424 20ZM9.73608 20C9.73608 25.672 14.3366 30.2698 20.012 30.2698C25.6874 30.2698 30.2879 25.672 30.2879 20C30.2879 14.328 25.6874 9.73024 20.012 9.73024C14.3366 9.73024 9.73608 14.328 9.73608 20ZM28.2933 9.32304C28.2931 9.79772 28.4338 10.2618 28.6975 10.6566C28.9612 11.0514 29.3361 11.3591 29.7748 11.5409C30.2136 11.7228 30.6964 11.7705 31.1623 11.6781C31.6282 11.5857 32.0561 11.3572 32.3921 11.0217C32.7281 10.6862 32.957 10.2587 33.0498 9.79316C33.1427 9.32764 33.0953 8.84506 32.9137 8.40645C32.7321 7.96783 32.4245 7.59288 32.0297 7.32901C31.6349 7.06513 31.1706 6.92419 30.6957 6.924H30.6947C30.0581 6.9243 29.4476 7.17712 28.9973 7.62693C28.5471 8.07675 28.2938 8.68678 28.2933 9.32304ZM11.9272 36.2795C9.97606 36.1907 8.91559 35.8659 8.21084 35.5915C7.27652 35.228 6.60988 34.795 5.90898 34.0955C5.20808 33.396 4.77422 32.7304 4.41209 31.7966C4.13736 31.0926 3.81237 30.0325 3.72367 28.0826C3.62665 25.9744 3.60728 25.3411 3.60728 20.0002C3.60728 14.6592 3.62826 14.0277 3.72367 11.9178C3.81253 9.96784 4.13992 8.90976 4.41209 8.20368C4.77582 7.26992 5.20904 6.60368 5.90898 5.9032C6.60892 5.20272 7.27492 4.76912 8.21084 4.4072C8.91527 4.13264 9.97606 3.80784 11.9272 3.7192C14.0366 3.62224 14.6702 3.60288 20.012 3.60288C25.3538 3.60288 25.9881 3.62384 28.0992 3.7192C30.0503 3.808 31.1091 4.1352 31.8156 4.4072C32.7499 4.76912 33.4165 5.20368 34.1174 5.9032C34.8183 6.60272 35.2506 7.26992 35.6143 8.20368C35.889 8.90768 36.214 9.96784 36.3027 11.9178C36.3998 14.0277 36.4191 14.6592 36.4191 20.0002C36.4191 25.3411 36.3998 25.9726 36.3027 28.0826C36.2139 30.0325 35.8873 31.0923 35.6143 31.7966C35.2506 32.7304 34.8174 33.3966 34.1174 34.0955C33.4175 34.7944 32.7499 35.228 31.8156 35.5915C31.1111 35.8661 30.0503 36.1909 28.0992 36.2795C25.9898 36.3765 25.3562 36.3958 20.012 36.3958C14.6678 36.3958 14.0359 36.3765 11.9272 36.2795ZM11.7615 0.12112C9.63106 0.21808 8.1753 0.55568 6.90398 1.05008C5.58735 1.56064 4.47276 2.2456 3.35897 3.35696C2.24519 4.46832 1.56158 5.584 1.05071 6.89984C0.556013 8.1712 0.218211 9.62528 0.121193 11.7544C0.0225735 13.8869 0 14.5686 0 20C0 25.4314 0.0225735 26.1131 0.121193 28.2456C0.218211 30.3749 0.556013 31.8288 1.05071 33.1002C1.56158 34.4152 2.24535 35.5322 3.35897 36.643C4.4726 37.7539 5.58735 38.4379 6.90398 38.9499C8.1777 39.4443 9.63106 39.7819 11.7615 39.8789C13.8963 39.9758 14.5774 40 20.012 40C25.4466 40 26.1288 39.9774 28.2625 39.8789C30.3931 39.7819 31.8479 39.4443 33.12 38.9499C34.4359 38.4379 35.5512 37.7544 36.665 36.643C37.7788 35.5317 38.461 34.4152 38.9733 33.1002C39.468 31.8288 39.8074 30.3747 39.9028 28.2456C39.9998 26.1115 40.0224 25.4314 40.0224 20C40.0224 14.5686 39.9998 13.8869 39.9028 11.7544C39.8058 9.62512 39.468 8.1704 38.9733 6.89984C38.461 5.5848 37.7771 4.47008 36.665 3.35696C35.553 2.24384 34.4359 1.56064 33.1216 1.05008C31.8479 0.55568 30.3929 0.21648 28.2641 0.12112C26.1304 0.02416 25.4482 0 20.0136 0C14.579 0 13.8963 0.02256 11.7615 0.12112Z" fill="url(#paint1_radial_0_1)"/>
<defs>
<radialGradient id="paint0_radial_0_1" cx="0" cy="0" r="1" gradientUnits="userSpaceOnUse" gradientTransform="translate(5.31743 40.189) scale(52.248 52.2166)">
<stop offset="0.09" stop-color="#FA8F21"/>
<stop offset="0.78" stop-color="#D82D7E"/>
</radialGradient>
<radialGradient id="paint1_radial_0_1" cx="0" cy="0" r="1" gradientUnits="userSpaceOnUse" gradientTransform="translate(24.2728 41.981) scale(41.1786 41.1539)">
<stop offset="0.64" stop-color="#8C3AAA" stop-opacity="0"/>
<stop offset="1" stop-color="#8C3AAA"/>
</radialGradient>
</defs>
</svg>
