<svg width="40" height="40" viewBox="0 0 40 40" fill="none" xmlns="http://www.w3.org/2000/svg">
<path d="M0 2.86531C0 1.28375 1.32406 0 2.95625 0H37.0438C38.6766 0 40 1.28375 40 2.86531V37.1352C40 38.7172 38.6766 40 37.0438 40H2.95625C1.32422 40 0 38.7173 0 37.1356V2.86484V2.86531Z" fill="#006699"/>
<path d="M12.1553 33.475V15.4668H6.16971V33.475H12.156H12.1553ZM9.16377 13.0085C11.2506 13.0085 12.5499 11.6257 12.5499 9.89761C12.5108 8.13011 11.2506 6.78589 9.20346 6.78589C7.15486 6.78589 5.81689 8.13011 5.81689 9.89745C5.81689 11.6256 7.11564 13.0084 9.12455 13.0084H9.1633L9.16377 13.0085ZM15.4685 33.475H21.4536V23.4195C21.4536 22.882 21.4927 22.3431 21.6508 21.9592C22.0833 20.8834 23.0681 19.7698 24.7221 19.7698C26.8874 19.7698 27.7541 21.421 27.7541 23.8421V33.475H33.7391V23.1496C33.7391 17.6185 30.7866 15.0446 26.8486 15.0446C23.62 15.0446 22.202 16.8492 21.4142 18.0782H21.4541V15.4675H15.4688C15.5469 17.1568 15.4683 33.4756 15.4683 33.4756L15.4685 33.475Z" fill="white"/>
</svg>
