<svg width="46" height="50" viewBox="0 0 46 50" fill="none" xmlns="http://www.w3.org/2000/svg">
<path fill-rule="evenodd" clip-rule="evenodd" d="M15.5742 5.7429C17.7063 -1.72778 28.2937 -1.72778 30.4257 5.7429C31.1066 8.12865 33.5577 9.54378 35.9642 8.94054C43.5 7.0516 48.7937 16.2206 43.3899 21.8023C41.6642 23.5848 41.6642 26.4151 43.3899 28.1976C48.7937 33.7793 43.5 42.9483 35.9642 41.0593C33.5577 40.4561 31.1066 41.8712 30.4257 44.257C28.2937 51.7277 17.7063 51.7277 15.5742 44.257C14.8934 41.8712 12.4423 40.4561 10.0358 41.0593C2.49995 42.9483 -2.79376 33.7793 2.61002 28.1976C4.33571 26.4151 4.33571 23.5848 2.61002 21.8023C-2.79376 16.2206 2.49995 7.0516 10.0358 8.94054C12.4423 9.54378 14.8934 8.12865 15.5742 5.7429ZM32.5337 19.7502C33.0862 19.0873 32.9966 18.1021 32.3337 17.5496C31.6707 16.9972 30.6855 17.0867 30.133 17.7497L22.9173 26.4086C22.1448 27.3355 21.6704 27.8989 21.2796 28.2518C21.0984 28.4155 20.9909 28.4807 20.9393 28.5056C20.9289 28.5107 20.9214 28.5137 20.9167 28.5155C20.912 28.5137 20.9045 28.5107 20.8941 28.5056C20.8425 28.4807 20.735 28.4155 20.5538 28.2518C20.163 27.8989 19.6886 27.3355 18.9161 26.4086L15.8671 22.7497C15.3146 22.0867 14.3294 21.9972 13.6664 22.5496C13.0035 23.1021 12.9139 24.0873 13.4664 24.7502L16.582 28.489C17.2663 29.3103 17.8832 30.0508 18.4594 30.5711C19.0864 31.1373 19.8761 31.6415 20.9167 31.6415C21.9573 31.6415 22.747 31.1373 23.374 30.5711C23.9502 30.0508 24.5671 29.3104 25.2514 28.489L32.5337 19.7502Z" fill="url(#paint0_linear_132_122)"/>
<defs>
<linearGradient id="paint0_linear_132_122" x1="0.400757" y1="49.86" x2="50.7419" y2="6.0491" gradientUnits="userSpaceOnUse">
<stop stop-color="#942050"/>
<stop offset="1" stop-color="#FF2E54"/>
</linearGradient>
</defs>
</svg>
