<svg width="100" height="100" viewBox="0 0 100 100" fill="none" xmlns="http://www.w3.org/2000/svg">
<circle cx="70" cy="67" r="25" fill="url(#paint0_linear_26_378)"/>
<g filter="url(#filter0_b_26_378)">
<path fill-rule="evenodd" clip-rule="evenodd" d="M21.8702 16.8498C22.2207 16.5952 22.5831 16.3609 22.9598 16.1454C23.0808 16.4148 23.2519 16.6673 23.4732 16.8885C27.775 21.1902 31.1516 24.5615 34.1282 26.9438C37.1416 29.3556 39.9636 30.9387 43.215 31.4537C45.2016 31.7683 47.2252 31.7683 49.2117 31.4537C52.3722 30.9531 55.1266 29.4435 58.0457 27.1445C60.9277 24.8749 64.163 21.676 68.2356 17.6063C68.3662 17.4758 68.4794 17.3343 68.5751 17.1849C69.8068 18.1443 70.8982 19.2725 71.817 20.537C75 24.9181 75 31.1676 75 43.6667V50.3334C75 62.8325 75 69.0821 71.817 73.4632C70.789 74.8781 69.5447 76.1224 68.1298 77.1504C63.7487 80.3334 57.4991 80.3334 45 80.3334C32.5009 80.3334 26.2513 80.3334 21.8702 77.1504C20.4553 76.1224 19.211 74.8781 18.183 73.4632C15 69.0821 15 62.8325 15 50.3334V43.6667C15 31.1676 15 24.9181 18.183 20.537C19.211 19.1221 20.4553 17.8778 21.8702 16.8498Z" fill="#28D03B" fill-opacity="0.35"/>
<path d="M45 13.6667C53.9998 13.6667 59.7595 13.6667 63.9146 14.855C60.1801 18.5797 57.3866 21.2992 54.9522 23.2164C52.3871 25.2366 50.4208 26.1998 48.4295 26.5152C46.9612 26.7478 45.4655 26.7478 43.9972 26.5152C41.9488 26.1908 39.9273 25.1809 37.2525 23.0401C34.7621 21.0469 31.8967 18.2348 28.0553 14.399C32.0291 13.6667 37.3414 13.6667 45 13.6667Z" fill="#28D03B" fill-opacity="0.35"/>
<path d="M23.4159 15.9406L23.1901 15.4375L22.7114 15.7114C22.3192 15.9359 21.9415 16.18 21.5764 16.4453C20.119 17.5041 18.8374 18.7857 17.7785 20.2431C16.1148 22.5331 15.3033 25.2888 14.9008 29.0038C14.5 32.703 14.5 37.4123 14.5 43.6349V43.6667V50.3334V50.3653C14.5 56.5879 14.5 61.2971 14.9008 64.9964C15.3033 68.7114 16.1148 71.4671 17.7785 73.7571C18.8374 75.2144 20.119 76.496 21.5764 77.5549C23.8663 79.2187 26.6221 80.0301 30.337 80.4326C34.0363 80.8334 38.7455 80.8334 44.9681 80.8334H45H45.0319C51.2545 80.8334 55.9637 80.8334 59.663 80.4326C63.3779 80.0301 66.1337 79.2187 68.4236 77.5549C69.881 76.496 71.1626 75.2144 72.2215 73.7571C73.8852 71.4671 74.6967 68.7114 75.0992 64.9964C75.5 61.2971 75.5 56.5879 75.5 50.3653V50.3334V43.6667V43.6348C75.5 37.4122 75.5 32.703 75.0992 29.0038C74.6967 25.2888 73.8852 22.5331 72.2215 20.2431C71.2752 18.9407 70.151 17.7786 68.8824 16.7905L68.4499 16.4536L68.1541 16.9152C68.0777 17.0344 67.9872 17.1477 67.8821 17.2526L68.2356 17.6063L67.8821 17.2526C63.8035 21.3284 60.5904 24.5041 57.7364 26.7517C54.8526 29.0228 52.1771 30.4778 49.1335 30.9598C47.1988 31.2663 45.2279 31.2663 43.2933 30.9598C40.1621 30.4639 37.4202 28.9381 34.4406 26.5534C31.4906 24.1923 28.1359 20.844 23.8267 16.535C23.649 16.3573 23.5124 16.1555 23.4159 15.9406ZM64.2677 15.209L64.8701 14.6082L64.0521 14.3743C59.8295 13.1667 54.0118 13.1667 45.1074 13.1667L45 13.1667H44.9374C37.333 13.1667 31.9835 13.1667 27.9647 13.9073L27.0281 14.0799L27.702 14.7528C31.5386 18.5838 34.4241 21.4168 36.9401 23.4305C39.6487 25.5984 41.7503 26.6656 43.919 27.0091C45.4391 27.2498 46.9876 27.2498 48.5077 27.0091C50.6159 26.6752 52.661 25.6573 55.2616 23.6092C57.7231 21.6707 60.5373 18.9295 64.2677 15.209Z" stroke="url(#paint1_linear_26_378)" stroke-linecap="round"/>
</g>
<g filter="url(#filter1_d_26_378)">
<path fill-rule="evenodd" clip-rule="evenodd" d="M38.3334 44.5C36.9527 44.5 35.8334 45.6193 35.8334 47C35.8334 48.3807 36.9527 49.5 38.3334 49.5H51.6667C53.0475 49.5 54.1667 48.3807 54.1667 47C54.1667 45.6193 53.0475 44.5 51.6667 44.5H38.3334ZM31.6667 57.8333C30.286 57.8333 29.1667 58.9526 29.1667 60.3333C29.1667 61.714 30.286 62.8333 31.6667 62.8333H58.3334C59.7141 62.8333 60.8334 61.714 60.8334 60.3333C60.8334 58.9526 59.7141 57.8333 58.3334 57.8333H31.6667Z" fill="url(#paint2_linear_26_378)"/>
</g>
<defs>
<filter id="filter0_b_26_378" x="-10" y="-11.3333" width="110" height="116.667" filterUnits="userSpaceOnUse" color-interpolation-filters="sRGB">
<feFlood flood-opacity="0" result="BackgroundImageFix"/>
<feGaussianBlur in="BackgroundImage" stdDeviation="12"/>
<feComposite in2="SourceAlpha" operator="in" result="effect1_backgroundBlur_26_378"/>
<feBlend mode="normal" in="SourceGraphic" in2="effect1_backgroundBlur_26_378" result="shape"/>
</filter>
<filter id="filter1_d_26_378" x="25.9109" y="41.2442" width="44.6901" height="31.3566" filterUnits="userSpaceOnUse" color-interpolation-filters="sRGB">
<feFlood flood-opacity="0" result="BackgroundImageFix"/>
<feColorMatrix in="SourceAlpha" type="matrix" values="0 0 0 0 0 0 0 0 0 0 0 0 0 0 0 0 0 0 127 0" result="hardAlpha"/>
<feOffset dx="3.25583" dy="3.25583"/>
<feGaussianBlur stdDeviation="3.25583"/>
<feColorMatrix type="matrix" values="0 0 0 0 0.152941 0 0 0 0 0.784314 0 0 0 0 0.235294 0 0 0 0.5 0"/>
<feBlend mode="normal" in2="BackgroundImageFix" result="effect1_dropShadow_26_378"/>
<feBlend mode="normal" in="SourceGraphic" in2="effect1_dropShadow_26_378" result="shape"/>
</filter>
<linearGradient id="paint0_linear_26_378" x1="45" y1="92" x2="96.0654" y2="43.1129" gradientUnits="userSpaceOnUse">
<stop stop-color="#209440"/>
<stop offset="1" stop-color="#2EFF36"/>
</linearGradient>
<linearGradient id="paint1_linear_26_378" x1="15" y1="13.6667" x2="81.3249" y2="73.2986" gradientUnits="userSpaceOnUse">
<stop stop-color="white" stop-opacity="0.25"/>
<stop offset="1" stop-color="white" stop-opacity="0"/>
</linearGradient>
<linearGradient id="paint2_linear_26_378" x1="45.2667" y1="66.7391" x2="67.4301" y2="29.2132" gradientUnits="userSpaceOnUse">
<stop stop-color="white"/>
<stop offset="1" stop-color="white" stop-opacity="0.2"/>
</linearGradient>
</defs>
</svg>
