<svg width="100" height="100" viewBox="0 0 100 100" fill="none" xmlns="http://www.w3.org/2000/svg">
<g clip-path="url(#clip0_26_383)">
<g clip-path="url(#clip1_26_383)">
<path d="M63.8669 45.363C64.2391 43.9738 65.6671 43.1493 67.0563 43.5216C68.4456 43.8938 69.27 45.3218 68.8978 46.711C68.5255 48.1003 67.0976 48.9247 65.7083 48.5524C64.3191 48.1802 63.4946 46.7522 63.8669 45.363Z" fill="url(#paint0_linear_26_383)"/>
<path fill-rule="evenodd" clip-rule="evenodd" d="M73.7964 18.3673C67.4059 16.6549 60.8373 20.4473 59.125 26.8378L58.5245 29.079C58.4884 29.2134 58.4711 29.3485 58.4708 29.4814C55.2964 29.7689 52.4191 31.4968 50.6752 34.1822C49.7766 35.5658 49.2748 37.4386 48.2712 41.1842C47.2676 44.9297 46.7658 46.8025 46.8521 48.45C47.0266 51.7799 48.7847 54.825 51.5812 56.641C52.9649 57.5396 54.8376 58.0414 58.5831 59.045L66.6326 61.2018C70.3781 62.2055 72.2509 62.7073 73.8985 62.6209C77.2283 62.4464 80.2734 60.6883 82.0894 57.8919C82.988 56.5082 83.4898 54.6354 84.4934 50.8899C85.497 47.1443 85.9989 45.2716 85.9125 43.624C85.7449 40.4264 84.1171 37.4914 81.5117 35.6551C81.5779 35.5399 81.6304 35.4143 81.6664 35.2799L82.267 33.0387C83.9793 26.6482 80.1869 20.0796 73.7964 18.3673ZM74.1815 33.029C76.124 33.5495 77.5627 33.935 78.6908 34.3109L79.2484 32.2299C80.5141 27.5065 77.711 22.6514 72.9876 21.3858C68.2642 20.1201 63.4091 22.9232 62.1435 27.6466L61.5859 29.7277C62.7508 29.9662 64.1896 30.3517 66.1321 30.8722L74.1815 33.029ZM60.8484 44.5542C61.6673 41.4979 64.8088 39.6841 67.8651 40.5031C70.9215 41.322 72.7352 44.4635 71.9163 47.5198C71.0973 50.5761 67.9558 52.3899 64.8995 51.571C61.8432 50.752 60.0294 47.6105 60.8484 44.5542Z" fill="url(#paint1_linear_26_383)"/>
</g>
<g clip-path="url(#clip2_26_383)">
<g filter="url(#filter0_b_26_383)">
<path fill-rule="evenodd" clip-rule="evenodd" d="M34.9414 16.1927C24.7166 18.9324 18.6488 29.4422 21.3885 39.667L22.3494 43.2529C22.407 43.468 22.491 43.669 22.5969 43.8533C18.4283 46.7913 15.8238 51.4873 15.5556 56.6035C15.4175 59.2396 16.2204 62.236 17.8262 68.2289C19.4319 74.2217 20.2348 77.2182 21.6725 79.432C24.5782 83.9064 29.4503 86.7193 34.7781 86.9986C37.4142 87.1367 40.4107 86.3338 46.4035 84.7281L59.2826 81.2771C65.2754 79.6713 68.2719 78.8684 70.4857 77.4307C74.9601 74.525 77.773 69.6529 78.0522 64.3252C78.1904 61.689 77.3875 58.6926 75.7817 52.6997C74.1759 46.7069 73.373 43.7104 71.9353 41.4966C69.145 37.1999 64.5414 34.4353 59.4623 33.9753C59.4619 33.7626 59.4341 33.5466 59.3765 33.3315L58.4157 29.7456C55.676 19.5208 45.1662 13.453 34.9414 16.1927ZM47.2043 36.2006C50.3123 35.3678 52.6144 34.751 54.4782 34.3693L53.586 31.0397C51.561 23.4822 43.7929 18.9973 36.2355 21.0223C28.6781 23.0473 24.1931 30.8155 26.2181 38.3729L27.1103 41.7025C28.9153 41.1011 31.2173 40.4843 34.3253 39.6515L47.2043 36.2006Z" fill="#CC6D28" fill-opacity="0.35"/>
<path d="M34.812 15.7097C24.3205 18.5209 18.0944 29.3049 20.9056 39.7964L21.8664 43.3823C21.8948 43.4882 21.9285 43.5914 21.9673 43.6917C17.8732 46.7302 15.3251 51.4488 15.0563 56.5773C14.914 59.2927 15.7355 62.3585 17.3088 68.2299L17.3432 68.3583L17.3776 68.4866C18.9508 74.3581 19.7723 77.4239 21.2532 79.7044C24.2461 84.313 29.2643 87.2103 34.752 87.4979C37.4674 87.6402 40.5331 86.8187 46.4046 85.2454L46.5329 85.211L59.412 81.7601L59.5402 81.7257C65.4117 80.1525 68.4776 79.331 70.758 77.8501C75.3667 74.8572 78.264 69.8389 78.5515 64.3513C78.6939 61.6359 77.8724 58.5701 76.2991 52.6987L76.2647 52.5703L76.2303 52.442C74.6571 46.5705 73.8356 43.5047 72.3547 41.2242C69.5576 36.9172 64.9916 34.1049 59.9267 33.5205C59.9102 33.4143 59.8879 33.308 59.8595 33.2021L58.8986 29.6162C56.0874 19.1247 45.3035 12.8986 34.812 15.7097ZM53.1031 31.1691L53.8588 33.9893C52.0757 34.3777 49.9064 34.9589 47.0919 35.7131L47.0749 35.7176L34.1959 39.1685L34.179 39.1731C31.3644 39.9272 29.1952 40.5085 27.4568 41.0637L26.7011 38.2435C24.7476 30.9528 29.0742 23.4588 36.3649 21.5053C43.6556 19.5518 51.1495 23.8784 53.1031 31.1691Z" stroke="url(#paint2_linear_26_383)" stroke-linecap="round"/>
</g>
<g filter="url(#filter1_d_26_383)">
<path fill-rule="evenodd" clip-rule="evenodd" d="M44.4315 51.6099C39.5414 52.9202 36.6394 57.9466 37.9497 62.8367C39.26 67.7269 44.2864 70.6289 49.1765 69.3186C54.0666 68.0083 56.9686 62.9818 55.6583 58.0917C54.348 53.2016 49.3216 50.2996 44.4315 51.6099ZM42.7793 61.5426C42.1837 59.3199 43.5028 57.0351 45.7256 56.4395C47.9483 55.844 50.2331 57.163 50.8287 59.3858C51.4243 61.6086 50.1052 63.8933 47.8824 64.4889C45.6596 65.0845 43.3749 63.7654 42.7793 61.5426Z" fill="url(#paint3_linear_26_383)"/>
</g>
</g>
</g>
<defs>
<filter id="filter0_b_26_383" x="-9.45947" y="-9.46533" width="112.527" height="121.479" filterUnits="userSpaceOnUse" color-interpolation-filters="sRGB">
<feFlood flood-opacity="0" result="BackgroundImageFix"/>
<feGaussianBlur in="BackgroundImage" stdDeviation="12"/>
<feComposite in2="SourceAlpha" operator="in" result="effect1_backgroundBlur_26_383"/>
<feBlend mode="normal" in="SourceGraphic" in2="effect1_backgroundBlur_26_383" result="shape"/>
</filter>
<filter id="filter1_d_26_383" x="34.3792" y="48.0396" width="31.3612" height="31.361" filterUnits="userSpaceOnUse" color-interpolation-filters="sRGB">
<feFlood flood-opacity="0" result="BackgroundImageFix"/>
<feColorMatrix in="SourceAlpha" type="matrix" values="0 0 0 0 0 0 0 0 0 0 0 0 0 0 0 0 0 0 127 0" result="hardAlpha"/>
<feOffset dx="3.25583" dy="3.25583"/>
<feGaussianBlur stdDeviation="3.25583"/>
<feColorMatrix type="matrix" values="0 0 0 0 0.580392 0 0 0 0 0.313726 0 0 0 0 0.12549 0 0 0 0.5 0"/>
<feBlend mode="normal" in2="BackgroundImageFix" result="effect1_dropShadow_26_383"/>
<feBlend mode="normal" in="SourceGraphic" in2="effect1_dropShadow_26_383" result="shape"/>
</filter>
<linearGradient id="paint0_linear_26_383" x1="44.4968" y1="55.2706" x2="95.7942" y2="31.6672" gradientUnits="userSpaceOnUse">
<stop stop-color="#945020"/>
<stop offset="1" stop-color="#FF862E"/>
</linearGradient>
<linearGradient id="paint1_linear_26_383" x1="44.4968" y1="55.2706" x2="95.7942" y2="31.6672" gradientUnits="userSpaceOnUse">
<stop stop-color="#945020"/>
<stop offset="1" stop-color="#FF862E"/>
</linearGradient>
<linearGradient id="paint2_linear_26_383" x1="5.96362" y1="23.9573" x2="87.4915" y2="63.566" gradientUnits="userSpaceOnUse">
<stop stop-color="white" stop-opacity="0.25"/>
<stop offset="1" stop-color="white" stop-opacity="0"/>
</linearGradient>
<linearGradient id="paint3_linear_26_383" x1="50.3365" y1="73.0513" x2="68.3577" y2="42.5445" gradientUnits="userSpaceOnUse">
<stop stop-color="white"/>
<stop offset="1" stop-color="white" stop-opacity="0.2"/>
</linearGradient>
<clipPath id="clip0_26_383">
<rect width="100" height="100" fill="white"/>
</clipPath>
<clipPath id="clip1_26_383">
<rect width="50" height="50" fill="white" transform="translate(50.3223 9.38135) rotate(15)"/>
</clipPath>
<clipPath id="clip2_26_383">
<rect width="80" height="80" fill="white" transform="translate(-4.98975 21.7158) rotate(-15)"/>
</clipPath>
</defs>
</svg>
