<svg width="40" height="40" viewBox="0 0 40 40" fill="none" xmlns="http://www.w3.org/2000/svg">
<path d="M20 40C31.0457 40 40 31.0457 40 20C40 8.95432 31.0457 0 20 0C8.95432 0 0 8.95432 0 20C0 31.0457 8.95432 40 20 40Z" fill="#34AADF"/>
<path d="M8.57362 19.5618C8.57362 19.5618 18.4806 15.3471 21.9165 13.863C23.2337 13.2694 27.7004 11.3697 27.7004 11.3697C27.7004 11.3697 29.762 10.5386 29.5901 12.557C29.5328 13.3881 29.0747 16.2968 28.6166 19.4431C27.9294 23.8954 27.185 28.7632 27.185 28.7632C27.185 28.7632 27.0704 30.1286 26.0969 30.366C25.1234 30.6034 23.5199 29.535 23.2337 29.2974C23.0045 29.1194 18.9387 26.448 17.4498 25.142C17.0489 24.7858 16.5908 24.0735 17.507 23.2424C19.5686 21.2834 22.031 18.8495 23.5199 17.3061C24.2072 16.5937 24.8943 14.9315 22.031 16.9498C17.9652 19.8587 13.9566 22.5894 13.9566 22.5894C13.9566 22.5894 13.0403 23.183 11.3224 22.6487C9.60435 22.1145 7.60004 21.4021 7.60004 21.4021C7.60004 21.4021 6.22575 20.5117 8.57362 19.5618Z" fill="white"/>
</svg>
